<?xml version="1.0" encoding="UTF-8" standalone="no"?>
<!-- Created with Inkscape (http://www.inkscape.org/) -->

<svg
   width="16.0px"
   height="16.0px"
   viewBox="0 0 16.0 16.0"
   version="1.1"
   id="SVGRoot"
   sodipodi:docname="icon.svg"
   inkscape:version="1.1.2 (b8e25be833, 2022-02-05)"
   xmlns:inkscape="http://www.inkscape.org/namespaces/inkscape"
   xmlns:sodipodi="http://sodipodi.sourceforge.net/DTD/sodipodi-0.dtd"
   xmlns="http://www.w3.org/2000/svg"
   xmlns:svg="http://www.w3.org/2000/svg">
  <sodipodi:namedview
     id="namedview5689"
     pagecolor="#505050"
     bordercolor="#eeeeee"
     borderopacity="1"
     inkscape:pageshadow="0"
     inkscape:pageopacity="0"
     inkscape:pagecheckerboard="false"
     inkscape:document-units="px"
     showgrid="true"
     inkscape:zoom="1"
     inkscape:cx="1547.5"
     inkscape:cy="1403"
     inkscape:window-width="1920"
     inkscape:window-height="1017"
     inkscape:window-x="-8"
     inkscape:window-y="-8"
     inkscape:window-maximized="1"
     inkscape:current-layer="layer3"
     borderlayer="false"
     inkscape:showpageshadow="true"
     showborder="true"
     showguides="true"
     inkscape:snap-text-baseline="false"
     inkscape:snap-object-midpoints="false"
     inkscape:snap-midpoints="false">
    <inkscape:grid
       type="xygrid"
       id="grid9051"
       dotted="true"
       visible="true"
       enabled="true" />
  </sodipodi:namedview>
  <defs
     id="defs5684">
    <linearGradient
       id="linearGradient12480"
       inkscape:swatch="solid">
      <stop
         style="stop-color:#82ffce;stop-opacity:1;"
         offset="0"
         id="stop12478" />
    </linearGradient>
    <marker
       style="overflow:visible;"
       id="Arrow1Lend"
       refX="0.0"
       refY="0.0"
       orient="auto"
       inkscape:stockid="Arrow1Lend"
       inkscape:isstock="true">
      <path
         transform="scale(0.8) rotate(180) translate(12.5,0)"
         style="fill-rule:evenodd;fill:context-stroke;stroke:context-stroke;stroke-width:1.0pt;"
         d="M 0.0,0.0 L 5.0,-5.0 L -12.5,0.0 L 5.0,5.0 L 0.0,0.0 z "
         id="path1145" />
    </marker>
    <inkscape:path-effect
       effect="powerstroke"
       id="path-effect5806"
       is_visible="true"
       lpeversion="1"
       offset_points="0,18.8679"
       not_jump="false"
       sort_points="true"
       interpolator_type="CubicBezierJohan"
       interpolator_beta="0.2"
       start_linecap_type="zerowidth"
       linejoin_type="extrp_arc"
       miter_limit="4"
       scale_width="1"
       end_linecap_type="zerowidth" />
    <inkscape:path-effect
       effect="powerstroke"
       id="path-effect5802"
       is_visible="true"
       lpeversion="1"
       offset_points="0,18.8679"
       not_jump="false"
       sort_points="true"
       interpolator_type="CubicBezierJohan"
       interpolator_beta="0.2"
       start_linecap_type="zerowidth"
       linejoin_type="extrp_arc"
       miter_limit="4"
       scale_width="1"
       end_linecap_type="zerowidth" />
    <inkscape:path-effect
       effect="powerstroke"
       id="path-effect5796"
       is_visible="true"
       lpeversion="1"
       offset_points="1.0539108,87.890625"
       not_jump="true"
       sort_points="true"
       interpolator_type="CentripetalCatmullRom"
       interpolator_beta="0.75"
       start_linecap_type="round"
       linejoin_type="spiro"
       miter_limit="4"
       scale_width="1"
       end_linecap_type="round" />
    <inkscape:path-effect
       effect="simplify"
       id="path-effect5794"
       is_visible="true"
       lpeversion="1"
       steps="1"
       threshold="0.0040133779"
       smooth_angles="0"
       helper_size="0"
       simplify_individual_paths="false"
       simplify_just_coalesce="false"
       step="1" />
    <inkscape:path-effect
       effect="skeletal"
       id="path-effect5791"
       is_visible="true"
       lpeversion="1"
       pattern="M 0,18.867925 C 0,8.4528302 8.4528302,0 18.867925,0 c 10.415094,0 18.867924,8.4528302 18.867924,18.867925 0,10.415094 -8.45283,18.867924 -18.867924,18.867924 C 8.4528302,37.735849 0,29.283019 0,18.867925 Z"
       copytype="single_stretched"
       prop_scale="1"
       scale_y_rel="false"
       spacing="0"
       normal_offset="0"
       tang_offset="0"
       prop_units="false"
       vertical_pattern="false"
       hide_knot="false"
       fuse_tolerance="0" />
    <inkscape:path-effect
       effect="powerstroke"
       id="path-effect5787"
       is_visible="true"
       lpeversion="1"
       offset_points="0,18.8679"
       not_jump="false"
       sort_points="true"
       interpolator_type="CubicBezierJohan"
       interpolator_beta="0.2"
       start_linecap_type="zerowidth"
       linejoin_type="extrp_arc"
       miter_limit="4"
       scale_width="1"
       end_linecap_type="zerowidth" />
    <filter
       inkscape:collect="always"
       style="color-interpolation-filters:sRGB"
       id="filter22976"
       x="-0.17795195"
       y="-0.81869599"
       width="1.3559039"
       height="2.637392">
      <feGaussianBlur
         inkscape:collect="always"
         stdDeviation="18.983854"
         id="feGaussianBlur22978" />
    </filter>
  </defs>
  <g
     inkscape:label="background"
     inkscape:groupmode="layer"
     id="layer1"
     style="display:inline">
    <path
       id="path1012"
       style="fill:#2d2d2d;fill-opacity:0.995984;stroke:#dbdbdb;stroke-width:15.621;stroke-linejoin:round;stroke-dashoffset:156.21"
       d="M 1828,1406.5 A 255.5,255.5 0 0 1 1572.5,1662 255.5,255.5 0 0 1 1317,1406.5 255.5,255.5 0 0 1 1572.5,1151 255.5,255.5 0 0 1 1828,1406.5 Z" />
    <text
       xml:space="preserve"
       style="font-style:normal;font-weight:normal;font-size:40px;line-height:1.25;font-family:sans-serif;fill:#000000;fill-opacity:1;stroke:none"
       x="1540"
       y="1330"
       id="text18490"><tspan
         sodipodi:role="line"
         id="tspan18488"
         x="1540"
         y="1330" /></text>
  </g>
  <g
     inkscape:groupmode="layer"
     id="layer2"
     inkscape:label="shadow"
     style="display:inline;mix-blend-mode:normal">
    <g
       aria-label="Twitter"
       id="text21424"
       style="font-size:74.7366px;line-height:1.25;opacity:0.663462;fill:#e58dff;fill-rule:evenodd;stroke-width:2.268;filter:url(#filter22976)">
      <path
         d="m 1496.0535,1383.1253 h -19.414 v 47.9146 h -7.2255 v -47.9146 H 1450 v -6.4227 h 46.0535 z"
         id="path1230" />
      <path
         d="m 1546.7781,1390.2778 -10.6193,40.7621 h -6.3497 l -10.4734,-31.42 -10.4003,31.42 h -6.3132 l -10.7288,-40.7621 h 7.1525 l 7.481,31.566 10.1814,-31.566 h 5.6563 l 10.4368,31.566 7.0796,-31.566 z"
         id="path1232" />
      <path
         d="m 1564.039,1383.4537 h -7.7364 v -7.116 h 7.7364 z m -0.4379,47.5862 h -6.8606 v -40.7621 h 6.8606 z"
         id="path1234" />
      <path
         d="m 1598.3419,1430.675 q -1.9341,0.5109 -4.2331,0.8393 -2.2625,0.3285 -4.0507,0.3285 -6.2402,0 -9.488,-3.3574 -3.2478,-3.3573 -3.2478,-10.7652 v -21.6766 h -4.6346 v -5.7658 h 4.6346 v -11.7141 h 6.8606 v 11.7141 h 14.159 v 5.7658 h -14.159 v 18.5747 q 0,3.2113 0.1459,5.036 0.146,1.7881 1.0218,3.3573 0.8029,1.4597 2.1896,2.153 1.4232,0.6569 4.3061,0.6569 1.6786,0 3.5033,-0.4744 1.8246,-0.5109 2.6274,-0.8393 h 0.3649 z"
         id="path1236" />
      <path
         d="m 1627.7914,1430.675 q -1.9341,0.5109 -4.2332,0.8393 -2.2625,0.3285 -4.0506,0.3285 -6.2402,0 -9.4881,-3.3574 -3.2478,-3.3573 -3.2478,-10.7652 v -21.6766 h -4.6345 v -5.7658 h 4.6345 v -11.7141 h 6.8606 v 11.7141 h 14.1591 v 5.7658 h -14.1591 v 18.5747 q 0,3.2113 0.146,5.036 0.1459,1.7881 1.0217,3.3573 0.8029,1.4597 2.1896,2.153 1.4232,0.6569 4.3061,0.6569 1.6787,0 3.5033,-0.4744 1.8246,-0.5109 2.6274,-0.8393 h 0.365 z"
         id="path1238" />
      <path
         d="m 1670.1956,1411.3705 h -30.0333 q 0,3.7587 1.1313,6.5686 1.1313,2.7734 3.1018,4.5616 1.8977,1.7516 4.4886,2.6274 2.6275,0.8759 5.7658,0.8759 4.1602,0 8.3568,-1.6422 4.2331,-1.6787 6.0213,-3.2843 h 0.3649 v 7.4809 q -3.4668,1.4597 -7.0795,2.445 -3.6128,0.9853 -7.5905,0.9853 -10.1449,0 -15.8377,-5.4739 -5.6928,-5.5103 -5.6928,-15.6187 0,-9.999 5.4373,-15.8743 5.4739,-5.8753 14.3781,-5.8753 8.2473,0 12.6994,4.8171 4.4885,4.817 4.4885,13.6846 z m -6.6781,-5.2549 q -0.036,-5.4009 -2.7369,-8.3568 -2.664,-2.9559 -8.1379,-2.9559 -5.5103,0 -8.7946,3.2478 -3.2479,3.2478 -3.6858,8.0649 z"
         id="path1240" />
      <path
         d="m 1706.0312,1397.7588 h -0.3649 q -1.5327,-0.365 -2.9924,-0.5109 -1.4232,-0.1825 -3.3938,-0.1825 -3.1748,0 -6.1307,1.4232 -2.9559,1.3867 -5.6928,3.6128 v 28.9385 h -6.8606 v -40.7621 h 6.8606 v 6.0213 q 4.0871,-3.2843 7.189,-4.6346 3.1383,-1.3867 6.3862,-1.3867 1.7881,0 2.5909,0.1095 0.8029,0.073 2.4085,0.3284 z"
         id="path1242" />
    </g>
  </g>
  <g
     inkscape:groupmode="layer"
     id="layer3"
     inkscape:label="text"
     style="display:inline">
    <g
       aria-label="Twitter"
       id="text4842"
       style="font-size:74.7366px;line-height:1.25;fill:#82ffce;fill-rule:evenodd;stroke:#e58dff;stroke-width:2.268">
      <path
         d="m 1497.0535,1383.0854 h -19.414 V 1431 h -7.2255 v -47.9146 H 1451 v -6.4227 h 46.0535 z"
         id="path1245" />
      <path
         d="M 1547.7781,1390.2379 1537.1588,1431 h -6.3497 l -10.4734,-31.42 -10.4003,31.42 h -6.3132 l -10.7288,-40.7621 h 7.1525 l 7.481,31.566 10.1814,-31.566 h 5.6563 l 10.4368,31.566 7.0796,-31.566 z"
         id="path1247" />
      <path
         d="m 1565.039,1383.4138 h -7.7364 v -7.116 h 7.7364 z M 1564.6011,1431 h -6.8606 v -40.7621 h 6.8606 z"
         id="path1249" />
      <path
         d="m 1599.3419,1430.6351 q -1.9341,0.5109 -4.2331,0.8393 -2.2625,0.3284 -4.0507,0.3284 -6.2402,0 -9.488,-3.3573 -3.2478,-3.3573 -3.2478,-10.7653 v -21.6765 h -4.6346 v -5.7658 h 4.6346 v -11.7141 h 6.8606 v 11.7141 h 14.159 v 5.7658 h -14.159 v 18.5747 q 0,3.2113 0.1459,5.0359 0.146,1.7882 1.0218,3.3574 0.8029,1.4597 2.1896,2.153 1.4232,0.6569 4.3061,0.6569 1.6786,0 3.5033,-0.4744 1.8246,-0.5109 2.6274,-0.8394 h 0.3649 z"
         id="path1251" />
      <path
         d="m 1628.7914,1430.6351 q -1.9341,0.5109 -4.2332,0.8393 -2.2625,0.3284 -4.0506,0.3284 -6.2402,0 -9.4881,-3.3573 -3.2478,-3.3573 -3.2478,-10.7653 v -21.6765 h -4.6345 v -5.7658 h 4.6345 v -11.7141 h 6.8606 v 11.7141 h 14.1591 v 5.7658 h -14.1591 v 18.5747 q 0,3.2113 0.146,5.0359 0.1459,1.7882 1.0217,3.3574 0.8029,1.4597 2.1896,2.153 1.4232,0.6569 4.3061,0.6569 1.6787,0 3.5033,-0.4744 1.8246,-0.5109 2.6274,-0.8394 h 0.365 z"
         id="path1253" />
      <path
         d="m 1671.1956,1411.3306 h -30.0333 q 0,3.7587 1.1313,6.5686 1.1313,2.7734 3.1018,4.5616 1.8977,1.7516 4.4886,2.6274 2.6275,0.8758 5.7658,0.8758 4.1602,0 8.3568,-1.6421 4.2331,-1.6787 6.0213,-3.2843 h 0.3649 v 7.4809 q -3.4668,1.4597 -7.0795,2.445 -3.6128,0.9853 -7.5905,0.9853 -10.1449,0 -15.8377,-5.4739 -5.6928,-5.5103 -5.6928,-15.6187 0,-9.999 5.4373,-15.8743 5.4739,-5.8753 14.3781,-5.8753 8.2473,0 12.6994,4.817 4.4885,4.817 4.4885,13.6847 z m -6.6781,-5.255 q -0.036,-5.4009 -2.7369,-8.3567 -2.664,-2.9559 -8.1379,-2.9559 -5.5103,0 -8.7946,3.2478 -3.2479,3.2478 -3.6858,8.0648 z"
         id="path1255" />
      <path
         d="m 1707.0312,1397.7189 h -0.3649 q -1.5327,-0.365 -2.9924,-0.5109 -1.4232,-0.1825 -3.3938,-0.1825 -3.1748,0 -6.1307,1.4232 -2.9559,1.3867 -5.6928,3.6128 V 1431 h -6.8606 v -40.7621 h 6.8606 v 6.0213 q 4.0871,-3.2844 7.189,-4.6346 3.1383,-1.3867 6.3862,-1.3867 1.7881,0 2.5909,0.1095 0.8029,0.073 2.4085,0.3284 z"
         id="path1257" />
    </g>
  </g>
</svg>
