<?xml version="1.0" encoding="UTF-8" standalone="no"?>
<!-- Created with Inkscape (http://www.inkscape.org/) -->

<svg
   width="2400px"
   height="2400px"
   viewBox="0 0 2400 2400"
   version="1.1"
   id="SVGRoot"
   sodipodi:docname="new icon.svg"
   inkscape:version="1.1.2 (b8e25be833, 2022-02-05)"
   xmlns:inkscape="http://www.inkscape.org/namespaces/inkscape"
   xmlns:sodipodi="http://sodipodi.sourceforge.net/DTD/sodipodi-0.dtd"
   xmlns="http://www.w3.org/2000/svg"
   xmlns:svg="http://www.w3.org/2000/svg">
  <sodipodi:namedview
     id="namedview829"
     pagecolor="#505050"
     bordercolor="#eeeeee"
     borderopacity="1"
     inkscape:pageshadow="0"
     inkscape:pageopacity="0"
     inkscape:pagecheckerboard="0"
     inkscape:document-units="px"
     showgrid="true"
     inkscape:zoom="0.29857056"
     inkscape:cx="1063.4002"
     inkscape:cy="1209.0944"
     inkscape:window-width="1920"
     inkscape:window-height="1017"
     inkscape:window-x="-8"
     inkscape:window-y="-8"
     inkscape:window-maximized="1"
     inkscape:current-layer="layer1"
     inkscape:snap-page="true"
     inkscape:snap-grids="true"
     inkscape:snap-global="true">
    <inkscape:grid
       type="xygrid"
       id="grid978"
       dotted="true" />
  </sodipodi:namedview>
  <defs
     id="defs824">
    <filter
       inkscape:collect="always"
       style="color-interpolation-filters:sRGB"
       id="filter22976"
       x="-0.17795195"
       y="-0.81869599"
       width="1.3559039"
       height="2.637392">
      <feGaussianBlur
         inkscape:collect="always"
         stdDeviation="18.983854"
         id="feGaussianBlur22978" />
    </filter>
  </defs>
  <g
     inkscape:label="Layer 1"
     inkscape:groupmode="layer"
     id="layer1"
     style="display:inline">
    <path
       id="path1012"
       style="display:inline;fill:#2d2d2d;fill-opacity:0.995984;stroke:#dbdbdb;stroke-width:69.5613;stroke-linejoin:round;stroke-dashoffset:156.21"
       d="M 2337.7577,1200.0001 A 1137.7576,1137.7576 0 0 1 1199.9999,2337.7577 1137.7576,1137.7576 0 0 1 62.242283,1200.0001 1137.7576,1137.7576 0 0 1 1199.9999,62.24231 1137.7576,1137.7576 0 0 1 2337.7577,1200.0001 Z" />
    <g
       aria-label="Twitter"
       id="text21424"
       style="font-size:74.7366px;line-height:1.25;display:inline;opacity:0.663462;mix-blend-mode:normal;fill:#e58dff;fill-rule:evenodd;stroke-width:2.268;filter:url(#filter22976)"
       transform="matrix(4.4530634,0,0,4.4530634,-5802.4418,-5063.2336)">
      <path
         d="m 1496.0535,1383.1253 h -19.414 v 47.9146 h -7.2255 v -47.9146 H 1450 v -6.4227 h 46.0535 z"
         id="path1230" />
      <path
         d="m 1546.7781,1390.2778 -10.6193,40.7621 h -6.3497 l -10.4734,-31.42 -10.4003,31.42 h -6.3132 l -10.7288,-40.7621 h 7.1525 l 7.481,31.566 10.1814,-31.566 h 5.6563 l 10.4368,31.566 7.0796,-31.566 z"
         id="path1232" />
      <path
         d="m 1564.039,1383.4537 h -7.7364 v -7.116 h 7.7364 z m -0.4379,47.5862 h -6.8606 v -40.7621 h 6.8606 z"
         id="path1234" />
      <path
         d="m 1598.3419,1430.675 q -1.9341,0.5109 -4.2331,0.8393 -2.2625,0.3285 -4.0507,0.3285 -6.2402,0 -9.488,-3.3574 -3.2478,-3.3573 -3.2478,-10.7652 v -21.6766 h -4.6346 v -5.7658 h 4.6346 v -11.7141 h 6.8606 v 11.7141 h 14.159 v 5.7658 h -14.159 v 18.5747 q 0,3.2113 0.1459,5.036 0.146,1.7881 1.0218,3.3573 0.8029,1.4597 2.1896,2.153 1.4232,0.6569 4.3061,0.6569 1.6786,0 3.5033,-0.4744 1.8246,-0.5109 2.6274,-0.8393 h 0.3649 z"
         id="path1236" />
      <path
         d="m 1627.7914,1430.675 q -1.9341,0.5109 -4.2332,0.8393 -2.2625,0.3285 -4.0506,0.3285 -6.2402,0 -9.4881,-3.3574 -3.2478,-3.3573 -3.2478,-10.7652 v -21.6766 h -4.6345 v -5.7658 h 4.6345 v -11.7141 h 6.8606 v 11.7141 h 14.1591 v 5.7658 h -14.1591 v 18.5747 q 0,3.2113 0.146,5.036 0.1459,1.7881 1.0217,3.3573 0.8029,1.4597 2.1896,2.153 1.4232,0.6569 4.3061,0.6569 1.6787,0 3.5033,-0.4744 1.8246,-0.5109 2.6274,-0.8393 h 0.365 z"
         id="path1238" />
      <path
         d="m 1670.1956,1411.3705 h -30.0333 q 0,3.7587 1.1313,6.5686 1.1313,2.7734 3.1018,4.5616 1.8977,1.7516 4.4886,2.6274 2.6275,0.8759 5.7658,0.8759 4.1602,0 8.3568,-1.6422 4.2331,-1.6787 6.0213,-3.2843 h 0.3649 v 7.4809 q -3.4668,1.4597 -7.0795,2.445 -3.6128,0.9853 -7.5905,0.9853 -10.1449,0 -15.8377,-5.4739 -5.6928,-5.5103 -5.6928,-15.6187 0,-9.999 5.4373,-15.8743 5.4739,-5.8753 14.3781,-5.8753 8.2473,0 12.6994,4.8171 4.4885,4.817 4.4885,13.6846 z m -6.6781,-5.2549 q -0.036,-5.4009 -2.7369,-8.3568 -2.664,-2.9559 -8.1379,-2.9559 -5.5103,0 -8.7946,3.2478 -3.2479,3.2478 -3.6858,8.0649 z"
         id="path1240" />
      <path
         d="m 1706.0312,1397.7588 h -0.3649 q -1.5327,-0.365 -2.9924,-0.5109 -1.4232,-0.1825 -3.3938,-0.1825 -3.1748,0 -6.1307,1.4232 -2.9559,1.3867 -5.6928,3.6128 v 28.9385 h -6.8606 v -40.7621 h 6.8606 v 6.0213 q 4.0871,-3.2843 7.189,-4.6346 3.1383,-1.3867 6.3862,-1.3867 1.7881,0 2.5909,0.1095 0.8029,0.073 2.4085,0.3284 z"
         id="path1242" />
    </g>
    <g
       aria-label="Twitter"
       id="text4842"
       style="font-size:74.7366px;line-height:1.25;display:inline;fill:#82ffce;fill-rule:evenodd;stroke:#e58dff;stroke-width:2.268"
       transform="matrix(4.4530634,0,0,4.4530634,-5802.4418,-5063.2336)">
      <path
         d="m 1497.0535,1383.0854 h -19.414 V 1431 h -7.2255 v -47.9146 H 1451 v -6.4227 h 46.0535 z"
         id="path1245" />
      <path
         d="M 1547.7781,1390.2379 1537.1588,1431 h -6.3497 l -10.4734,-31.42 -10.4003,31.42 h -6.3132 l -10.7288,-40.7621 h 7.1525 l 7.481,31.566 10.1814,-31.566 h 5.6563 l 10.4368,31.566 7.0796,-31.566 z"
         id="path1247" />
      <path
         d="m 1565.039,1383.4138 h -7.7364 v -7.116 h 7.7364 z M 1564.6011,1431 h -6.8606 v -40.7621 h 6.8606 z"
         id="path1249" />
      <path
         d="m 1599.3419,1430.6351 q -1.9341,0.5109 -4.2331,0.8393 -2.2625,0.3284 -4.0507,0.3284 -6.2402,0 -9.488,-3.3573 -3.2478,-3.3573 -3.2478,-10.7653 v -21.6765 h -4.6346 v -5.7658 h 4.6346 v -11.7141 h 6.8606 v 11.7141 h 14.159 v 5.7658 h -14.159 v 18.5747 q 0,3.2113 0.1459,5.0359 0.146,1.7882 1.0218,3.3574 0.8029,1.4597 2.1896,2.153 1.4232,0.6569 4.3061,0.6569 1.6786,0 3.5033,-0.4744 1.8246,-0.5109 2.6274,-0.8394 h 0.3649 z"
         id="path1251" />
      <path
         d="m 1628.7914,1430.6351 q -1.9341,0.5109 -4.2332,0.8393 -2.2625,0.3284 -4.0506,0.3284 -6.2402,0 -9.4881,-3.3573 -3.2478,-3.3573 -3.2478,-10.7653 v -21.6765 h -4.6345 v -5.7658 h 4.6345 v -11.7141 h 6.8606 v 11.7141 h 14.1591 v 5.7658 h -14.1591 v 18.5747 q 0,3.2113 0.146,5.0359 0.1459,1.7882 1.0217,3.3574 0.8029,1.4597 2.1896,2.153 1.4232,0.6569 4.3061,0.6569 1.6787,0 3.5033,-0.4744 1.8246,-0.5109 2.6274,-0.8394 h 0.365 z"
         id="path1253" />
      <path
         d="m 1671.1956,1411.3306 h -30.0333 q 0,3.7587 1.1313,6.5686 1.1313,2.7734 3.1018,4.5616 1.8977,1.7516 4.4886,2.6274 2.6275,0.8758 5.7658,0.8758 4.1602,0 8.3568,-1.6421 4.2331,-1.6787 6.0213,-3.2843 h 0.3649 v 7.4809 q -3.4668,1.4597 -7.0795,2.445 -3.6128,0.9853 -7.5905,0.9853 -10.1449,0 -15.8377,-5.4739 -5.6928,-5.5103 -5.6928,-15.6187 0,-9.999 5.4373,-15.8743 5.4739,-5.8753 14.3781,-5.8753 8.2473,0 12.6994,4.817 4.4885,4.817 4.4885,13.6847 z m -6.6781,-5.255 q -0.036,-5.4009 -2.7369,-8.3567 -2.664,-2.9559 -8.1379,-2.9559 -5.5103,0 -8.7946,3.2478 -3.2479,3.2478 -3.6858,8.0648 z"
         id="path1255" />
      <path
         d="m 1707.0312,1397.7189 h -0.3649 q -1.5327,-0.365 -2.9924,-0.5109 -1.4232,-0.1825 -3.3938,-0.1825 -3.1748,0 -6.1307,1.4232 -2.9559,1.3867 -5.6928,3.6128 V 1431 h -6.8606 v -40.7621 h 6.8606 v 6.0213 q 4.0871,-3.2844 7.189,-4.6346 3.1383,-1.3867 6.3862,-1.3867 1.7881,0 2.5909,0.1095 0.8029,0.073 2.4085,0.3284 z"
         id="path1257" />
    </g>
  </g>
</svg>
